<?xml version="1.0" encoding="utf-8"?>
<svg viewBox="-18.942 319.228 548.468 208.234" xmlns="http://www.w3.org/2000/svg">
  <defs>
    <pattern id="pattern-0" x="0" y="0" width="25" height="25" patternUnits="userSpaceOnUse" viewBox="0 0 100 100"/>
  </defs>
  <g>
    <path class="waves" style="stroke-linecap: round; stroke-width: 6px; fill: rgb(99, 134, 203);" d="M 291.657 382.192 M 380.777 454.827 M -18.866 429.738 C -16.846 417.191 19.024 434.398 74.361 453.336 C 119.605 464.726 119.759 434.013 170.034 428.854 C 213.294 424.415 216.071 438.768 245.785 440.967 C 261.629 442.568 280.517 442.294 290.326 437.983 C 291.288 437.56 297.591 434.482 297.641 434.489 C 331.287 422.197 336.137 457.391 356.44 455.487 C 370.565 454.162 384.987 430.606 416.931 428.916 C 421.276 428.686 435.88 423.338 442.74 426.57 C 473.107 440.876 484.788 446.323 482.237 444.979 C 500 449.213 554.138 405.739 516.504 449.44 L 506.666 508.966 C 506.666 508.966 -0.996 503.815 -0.996 503.97 C -0.996 504.125 -20.303 428.097 -18.866 429.738 Z M -21.828 429.261 C -21.779 429.05 -21.721 428.838 -21.655 428.626 C -21.492 428.224 -21.261 427.802 -20.97 427.529 C -20.358 426.955 -18.528 426.636 -17.802 426.92 C -17.369 427.09 -16.804 427.572 -16.609 427.762 L -19.514 424.935 C -19.045 424.445 -18.528 424.032 -17.977 423.734 C -16.257 422.804 -13.671 422.389 -11.133 422.47 C -6.312 422.625 0.495 424.289 8.658 426.87 C 24.897 432.002 47.678 441.032 75.236 450.465 C 96.807 456.176 106.991 451.511 118.814 444.701 C 130.668 437.873 143.874 428.719 169.728 425.87 C 191.827 423.676 203.971 426.216 213.947 429.578 C 223.97 432.956 231.8 437.042 246.087 437.982 C 261.758 439.576 279.891 439.421 289.118 435.237 C 290.026 434.839 297.141 431.649 298.057 431.518 L 296.363 431.76 L 296.612 431.671 C 305.514 428.507 313.062 428.307 318.977 429.963 C 324.981 431.645 329.944 435.237 334.03 438.844 C 342.21 446.065 347.345 454.041 356.16 452.5 C 362.377 452.2 368.813 446.217 378.335 439.845 C 387.813 433.503 400.162 426.946 416.772 425.92 C 420.681 425.78 436.003 420.573 444.019 423.856 C 459.201 431.008 469.707 435.944 476.1 438.924 C 479.294 440.413 481.446 441.407 482.644 441.946 C 482.714 441.977 482.779 442.007 482.84 442.034 L 482.933 442.061 C 490.748 444.32 507.767 434.592 518.933 429.665 C 521.755 428.42 524.384 427.392 526.279 427.002 C 527.34 426.784 528.801 426.73 529.754 427.046 C 530.368 427.249 531.342 427.915 531.763 428.498 C 532.166 429.055 532.504 430.151 532.523 430.817 C 532.609 433.823 528.461 440.077 519.327 450.756 L 509.207 511.992 L 506.636 511.966 C 506.636 511.966 379.72 510.678 252.805 509.41 C 189.347 508.776 125.89 508.146 78.297 507.685 C 54.501 507.455 34.671 507.266 20.79 507.14 C 13.85 507.077 8.399000000000001 507.03 4.682 507 C 2.824 506.986 1.4020000000000001 506.976 0.444 506.971 C -0.034 506.968 -0.391 506.967 -0.63 506.967 C -0.747 506.967 -0.8240000000000001 506.967 -0.8760000000000001 506.967 C -0.897 506.967 -0.891 506.967 -0.887 506.967 C -0.8750000000000001 506.967 -0.8220000000000001 506.965 -0.7869999999999999 506.962 C -0.75 506.96 -0.636 506.949 -0.561 506.938 C -0.557 506.938 -0.553 506.937 -0.549 506.936 C -1.553 507.068 -3.025 506.222 -3.302 505.889 C -3.43 505.736 -3.596 505.472 -3.6470000000000002 505.375 C -3.729 505.221 -3.815 505 -3.835 504.942 C -3.851 504.894 -3.872 504.824 -3.88 504.8 C -3.887 504.773 -3.898 504.733 -3.9050000000000002 504.707 C -3.917 504.665 -3.934 504.6 -3.9530000000000003 504.526 C -3.991 504.383 -4.047 504.168 -4.118 503.892 C -4.259 503.342 -4.467 502.53 -4.73 501.498 C -5.255 499.436 -6.005 496.482 -6.899 492.94 C -8.687 485.858 -11.057 476.413 -13.382 467.017 C -15.707 457.621 -17.99 448.257 -19.602 441.348 C -20.408 437.888 -21.054 435.012 -21.451 433.06 C -21.652 432.07 -21.804 431.238 -21.876 430.701 C -21.917 430.389 -21.954 429.934 -21.936 429.631 C -21.927 429.484 -21.853 429.158 -21.719 428.793 Z M -15.904 430.077 C -15.843 430.476 -15.735 431.059 -15.571 431.866 C -15.186 433.757 -14.56 436.55 -13.758 439.985 C -12.154 446.865 -9.88 456.19 -7.558 465.576 C -5.235 474.963 -2.869 484.393 -1.082 491.471 C -0.188 495.01 0.56 497.957 1.084 500.017 C 1.172 500.362 1.254 500.682 1.329 500.976 C 2.218 500.982 3.356 500.99 4.729 501.001 C 8.448 501.03 13.904 501.077 20.845 501.14 C 34.727 501.266 54.558 501.455 78.355 501.685 C 125.949 502.146 189.407 502.776 252.865 503.41 C 379.781 504.678 485.542 505.752 504.125 505.94 L 513.682 448.119 L 514.231 447.482 C 520.367 440.368 523.774 436.012 525.372 433.508 C 524.252 433.91 522.916 434.465 521.356 435.154 C 513.679 438.542 502.063 444.426 492.38 446.949 C 492.38 446.949 485.625 445.624 485.367 446.277 C 485.094 446.969 484.021 447.856 483.529 448.021 C 483.406 448.062 483.276 448.091 483.143 448.11 C 482.587 448.069 482.052 447.999 481.541 447.897 L 482.765 448.14 C 482.167 448.154 481.608 448.022 481.505 447.985 C 481.28 447.904 480.805 447.698 480.181 447.417 C 478.957 446.866 476.769 445.856 473.565 444.362 C 467.164 441.378 456.646 436.438 441.461 429.284 C 435.757 426.104 421.871 431.592 417.09 431.912 C 401.756 432.576 390.922 438.642 381.672 444.832 C 372.466 450.992 364.628 457.449 356.72 458.474 C 345.232 458.837 337.791 450.168 330.059 443.341 C 326.188 439.924 322.361 437.142 317.359 435.741 C 312.267 434.315 306.591 434.325 298.67 437.307 L 299.187 437.112 L 297.225 437.46 C 298.041 437.315 292.55 440.281 291.534 440.729 C 281.143 445.167 261.524 445.563 245.508 443.954 C 230.116 442.69 221.64 438.503 212.031 435.264 C 202.375 432.01 191.501 429.593 170.34 431.838 C 145.919 434.148 133.911 442.93 121.808 449.9 C 109.674 456.89 97.204 461.866 73.629 456.245 C 45.893 446.752 22.885 437.659 6.85 432.591 C -1.124 430.07 -7.123 428.602 -11.325 428.467 C -13.298 428.404 -14.279 428.555 -15.123 429.012 C -15.784 429.369 -15.898 429.285 -15.904 430.077 Z M -21.828 429.261 C -21.779 429.05 -21.721 428.838 -21.655 428.626 C -21.492 428.224 -21.261 427.802 -20.97 427.529 C -20.358 426.955 -18.528 426.636 -17.802 426.92 C -17.369 427.09 -16.804 427.572 -16.609 427.762 L -19.514 424.935 C -19.045 424.445 -18.528 424.032 -17.977 423.734 C -16.257 422.804 -13.671 422.389 -11.133 422.47 C -6.312 422.625 0.495 424.289 8.658 426.87 C 24.897 432.002 47.678 441.032 75.236 450.465 C 96.807 456.176 106.991 451.511 118.814 444.701 C 130.668 437.873 143.874 428.719 169.728 425.87 C 191.827 423.676 203.971 426.216 213.947 429.578 C 223.97 432.956 231.8 437.042 246.087 437.982 C 261.758 439.576 279.891 439.421 289.118 435.237 C 290.026 434.839 297.141 431.649 298.057 431.518 L 296.363 431.76 L 296.612 431.671 C 305.514 428.507 313.062 428.307 318.977 429.963 C 324.981 431.645 329.944 435.237 334.03 438.844 C 342.21 446.065 347.345 454.041 356.16 452.5 C 362.377 452.2 368.813 446.217 378.335 439.845 C 387.813 433.503 400.162 426.946 416.772 425.92 C 420.681 425.78 436.003 420.573 444.019 423.856 C 459.201 431.008 469.707 435.944 476.1 438.924 C 479.294 440.413 481.446 441.407 482.644 441.946 C 482.714 441.977 482.779 442.007 482.84 442.034 L 482.933 442.061 C 490.748 444.32 507.767 434.592 518.933 429.665 C 521.755 428.42 524.384 427.392 526.279 427.002 C 527.34 426.784 528.801 426.73 529.754 427.046 C 530.368 427.249 531.342 427.915 531.763 428.498 C 532.166 429.055 532.504 430.151 532.523 430.817 C 532.609 433.823 528.461 440.077 519.327 450.756 L 509.207 511.992 L 506.636 511.966 C 506.636 511.966 379.72 510.678 252.805 509.41 C 189.347 508.776 125.89 508.146 78.297 507.685 C 54.501 507.455 34.671 507.266 20.79 507.14 C 13.85 507.077 8.399000000000001 507.03 4.682 507 C 2.824 506.986 1.4020000000000001 506.976 0.444 506.971 C -0.034 506.968 -0.391 506.967 -0.63 506.967 C -0.747 506.967 -0.8240000000000001 506.967 -0.8760000000000001 506.967 C -0.897 506.967 -0.891 506.967 -0.887 506.967 C -0.8750000000000001 506.967 -0.8220000000000001 506.965 -0.7869999999999999 506.962 C -0.75 506.96 -0.636 506.949 -0.561 506.938 C -0.557 506.938 -0.553 506.937 -0.549 506.936 C -1.553 507.068 -3.025 506.222 -3.302 505.889 C -3.43 505.736 -3.596 505.472 -3.6470000000000002 505.375 C -3.729 505.221 -3.815 505 -3.835 504.942 C -3.851 504.894 -3.872 504.824 -3.88 504.8 C -3.887 504.773 -3.898 504.733 -3.9050000000000002 504.707 C -3.917 504.665 -3.934 504.6 -3.9530000000000003 504.526 C -3.991 504.383 -4.047 504.168 -4.118 503.892 C -4.259 503.342 -4.467 502.53 -4.73 501.498 C -5.255 499.436 -6.005 496.482 -6.899 492.94 C -8.687 485.858 -11.057 476.413 -13.382 467.017 C -15.707 457.621 -17.99 448.257 -19.602 441.348 C -20.408 437.888 -21.054 435.012 -21.451 433.06 C -21.652 432.07 -21.804 431.238 -21.876 430.701 C -21.917 430.389 -21.954 429.934 -21.936 429.631 C -21.927 429.484 -21.853 429.158 -21.719 428.793 Z M -15.904 430.077 C -15.843 430.476 -15.735 431.059 -15.571 431.866 C -15.186 433.757 -14.56 436.55 -13.758 439.985 C -12.154 446.865 -9.88 456.19 -7.558 465.576 C -5.235 474.963 -2.869 484.393 -1.082 491.471 C -0.188 495.01 0.56 497.957 1.084 500.017 C 1.172 500.362 1.254 500.682 1.329 500.976 C 2.218 500.982 3.356 500.99 4.729 501.001 C 8.448 501.03 13.904 501.077 20.845 501.14 C 34.727 501.266 54.558 501.455 78.355 501.685 C 125.949 502.146 189.407 502.776 252.865 503.41 C 379.781 504.678 485.542 505.752 504.125 505.94 L 513.682 448.119 L 514.231 447.482 C 520.367 440.368 523.774 436.012 525.372 433.508 C 524.252 433.91 522.916 434.465 521.356 435.154 C 513.679 438.542 502.063 444.426 492.38 446.949 C 492.38 446.949 485.625 445.624 485.367 446.277 C 485.094 446.969 484.021 447.856 483.529 448.021 C 483.406 448.062 483.276 448.091 483.143 448.11 C 482.587 448.069 482.052 447.999 481.541 447.897 L 482.765 448.14 C 482.167 448.154 481.608 448.022 481.505 447.985 C 481.28 447.904 480.805 447.698 480.181 447.417 C 478.957 446.866 476.769 445.856 473.565 444.362 C 467.164 441.378 456.646 436.438 441.461 429.284 C 435.757 426.104 421.871 431.592 417.09 431.912 C 401.756 432.576 390.922 438.642 381.672 444.832 C 372.466 450.992 364.628 457.449 356.72 458.474 C 345.232 458.837 337.791 450.168 330.059 443.341 C 326.188 439.924 322.361 437.142 317.359 435.741 C 312.267 434.315 306.591 434.325 298.67 437.307 L 299.187 437.112 L 297.225 437.46 C 298.041 437.315 292.55 440.281 291.534 440.729 C 281.143 445.167 261.524 445.563 245.508 443.954 C 230.116 442.69 221.64 438.503 212.031 435.264 C 202.375 432.01 191.501 429.593 170.34 431.838 C 145.919 434.148 133.911 442.93 121.808 449.9 C 109.674 456.89 97.204 461.866 73.629 456.245 C 45.893 446.752 22.885 437.659 6.85 432.591 C -1.124 430.07 -7.123 428.602 -11.325 428.467 C -13.298 428.404 -14.279 428.555 -15.123 429.012 C -15.784 429.369 -15.898 429.285 -15.904 430.077 Z M 417.018 391.863 M 380.777 527.462 M 291.657 454.827 M 417.018 352.644 M 380.777 488.243 M 291.657 415.608 M 417.018 319.228"/>
  </g>
</svg>