<?xml version="1.0" encoding="utf-8"?>
<svg viewBox="0 256.419 500 81.634" xmlns="http://www.w3.org/2000/svg">
  <rect y="256.419" width="500" height="81.634" style="fill: rgb(69, 69, 69);"/>
  <rect x="27.638" y="292.135" width="44.269" height="6.275" style="fill: rgb(252, 244, 0);"/>
  <rect x="115.064" y="292.135" width="44.269" height="6.275" style="fill: rgb(252, 244, 0);"/>
  <rect x="197.069" y="292.135" width="44.269" height="6.275" style="fill: rgb(252, 244, 0);"/>
  <rect x="275.679" y="292.135" width="44.269" height="6.275" style="fill: rgb(252, 244, 0);"/>
  <rect x="356.297" y="292.135" width="44.269" height="6.275" style="fill: rgb(252, 244, 0);"/>
  <rect x="430.968" y="292.135" width="44.269" height="6.275" style="fill: rgb(252, 244, 0);"/>
  <rect y="256.419" width="500" height="81.634" style="fill: rgb(69, 69, 69);" x="500"/>
  <rect x="527.638" y="292.135" width="44.269" height="6.275" style="fill: rgb(252, 244, 0);"/>
  <rect x="615.064" y="292.135" width="44.269" height="6.275" style="fill: rgb(252, 244, 0);"/>
  <rect x="697.069" y="292.135" width="44.269" height="6.275" style="fill: rgb(252, 244, 0);"/>
  <rect x="775.679" y="292.135" width="44.269" height="6.275" style="fill: rgb(252, 244, 0);"/>
  <rect x="856.297" y="292.135" width="44.269" height="6.275" style="fill: rgb(252, 244, 0);"/>
  <rect x="930.968" y="292.135" width="44.269" height="6.275" style="fill: rgb(252, 244, 0);"/>
  <rect y="256.419" width="500" height="81.634" style="fill: rgb(69, 69, 69);" x="1000"/>
  <rect x="1027.638" y="292.135" width="44.269" height="6.275" style="fill: rgb(252, 244, 0);"/>
  <rect x="1115.064" y="292.135" width="44.269" height="6.275" style="fill: rgb(252, 244, 0);"/>
  <rect x="1197.069" y="292.135" width="44.269" height="6.275" style="fill: rgb(252, 244, 0);"/>
  <rect x="1275.679" y="292.135" width="44.269" height="6.275" style="fill: rgb(252, 244, 0);"/>
  <rect x="1356.297" y="292.135" width="44.269" height="6.275" style="fill: rgb(252, 244, 0);"/>
  <rect x="1430.968" y="292.135" width="44.269" height="6.275" style="fill: rgb(252, 244, 0);"/>
  <rect y="256.419" width="500" height="81.634" style="fill: rgb(69, 69, 69);" x="-500"/>
  <rect x="-472.362" y="292.135" width="44.269" height="6.275" style="fill: rgb(252, 244, 0);"/>
  <rect x="-384.936" y="292.135" width="44.269" height="6.275" style="fill: rgb(252, 244, 0);"/>
  <rect x="-302.931" y="292.135" width="44.269" height="6.275" style="fill: rgb(252, 244, 0);"/>
  <rect x="-224.321" y="292.135" width="44.269" height="6.275" style="fill: rgb(252, 244, 0);"/>
  <rect x="-143.703" y="292.135" width="44.269" height="6.275" style="fill: rgb(252, 244, 0);"/>
  <rect x="-69.032" y="292.135" width="44.269" height="6.275" style="fill: rgb(252, 244, 0);"/>
  <rect y="256.419" width="500" height="81.634" style="fill: rgb(69, 69, 69);" x="-1000"/>
  <rect x="-972.362" y="292.135" width="44.269" height="6.275" style="fill: rgb(252, 244, 0);"/>
  <rect x="-884.936" y="292.135" width="44.269" height="6.275" style="fill: rgb(252, 244, 0);"/>
  <rect x="-802.931" y="292.135" width="44.269" height="6.275" style="fill: rgb(252, 244, 0);"/>
  <rect x="-724.321" y="292.135" width="44.269" height="6.275" style="fill: rgb(252, 244, 0);"/>
  <rect x="-643.703" y="292.135" width="44.269" height="6.275" style="fill: rgb(252, 244, 0);"/>
  <rect x="-569.032" y="292.135" width="44.269" height="6.275" style="fill: rgb(252, 244, 0);"/>
</svg>