<?xml version="1.0" encoding="utf-8"?>
<svg viewBox="0 108.648 500 391.352" xmlns="http://www.w3.org/2000/svg">
  <g>
    <title>middleSkyline</title>
    <path d="M 0 244.162 L 36.551 244.162 L 36.551 185.454 L 91.292 185.454 L 91.292 211.124 L 140.222 211.124 L 140.222 162.786 L 223.738 162.786 L 223.738 230.299 L 247.587 230.299 L 247.587 108.648 L 300.172 108.648 L 300.172 197.802 L 318.97 197.802 L 318.97 150.66 L 344.844 150.66 L 344.844 197.802 L 359.12 197.802 L 359.12 185.454 L 383.139 185.454 L 383.139 150.66 L 432.034 150.66 L 432.034 185.454 L 447.154 185.454 L 447.154 211.124 L 475.258 211.124 L 475.258 280.41 L 485.241 280.41 L 485.241 150.66 L 500 150.66 L 500 500 L 0 500 Z" style="fill: rgb(94, 93, 93);"/>
  </g>
</svg>