<?xml version="1.0" encoding="utf-8"?>
<svg viewBox="0 0 500 500" xmlns="http://www.w3.org/2000/svg">
  <g>
    <title>backSkyline</title>
    <path d="M 0 146.61 L 38.929 146.61 L 38.929 76.456 L 101.439 76.456 L 101.439 129.747 L 137.678 129.747 L 137.678 56.208 L 143.94 56.208 L 166.233 16.49 L 189.547 56.208 L 198.394 56.208 L 198.394 96.881 L 223.976 96.881 L 223.976 56.208 L 248.319 56.208 L 248.319 146.61 L 258.687 146.61 L 258.687 129.747 L 268.618 129.747 L 268.618 96.881 L 277.154 96.881 L 277.154 76.456 L 305.913 76.456 L 305.913 146.61 L 319.04 146.61 L 319.04 108.648 L 325.067 108.648 L 325.067 72.656 L 327.924 72.656 L 327.924 41.051 L 331.279 41.051 L 331.279 22.251 L 333.375 22.251 L 333.375 41.051 L 336.353 41.051 L 336.353 72.656 L 339.679 72.656 L 339.679 108.648 L 347.218 108.648 L 347.218 201.175 L 359.932 201.175 L 359.932 96.881 L 389.939 96.881 L 389.939 44.816 L 420.09 44.816 L 420.09 96.881 L 429.54 96.881 L 429.54 211.124 L 438.657 211.124 L 438.657 129.747 L 477.427 129.747 L 477.427 232.286 L 500 232.286 L 500 500 L 0 500 Z" style="fill: rgb(142, 142, 142);"/>
  </g>
</svg>