<?xml version="1.0" encoding="utf-8"?>
<svg viewBox="0 211.124 500 288.876" xmlns="http://www.w3.org/2000/svg">
  <g>
    <title>frontSkyline</title>
    <path d="M 500 388.838 L 500 500 L 215.352 500 L 0 500 L 0 325.404 L 63.228 325.404 L 63.228 249.604 L 127.605 249.604 L 127.605 211.124 L 164.807 211.124 L 164.807 249.604 L 172.35 249.604 L 172.35 352.73 L 198.207 352.73 L 198.207 397.038 L 215.352 397.038 L 215.352 372.352 L 227.185 372.352 L 227.185 311.914 L 236.017 311.914 L 236.017 285.898 L 280.154 285.898 L 280.154 311.914 L 290.881 311.914 L 290.881 372.352 L 313.639 372.352 L 313.639 429.93 L 355.246 429.93 L 355.246 211.124 L 413.926 211.124 L 413.926 298.04 L 449.636 298.04 L 449.636 388.608 L 500 388.838 Z" style="fill: rgb(52, 52, 52);"/>
  </g>
</svg>