<?xml version="1.0" encoding="utf-8"?>
<svg viewBox="0 0 500 500" xmlns="http://www.w3.org/2000/svg" xmlns:bx="https://boxy-svg.com">
  <defs>
    <linearGradient id="gradient-2" gradientUnits="userSpaceOnUse" x1="93.832" y1="266.691" x2="93.832" y2="350.053" gradientTransform="matrix(0.999939, 0.01089, -0.010913, 0.972412, 2.916026, 6.335706)">
      <stop offset="0" style="stop-color: rgba(71, 71, 71, 1)"/>
      <stop offset="1" style="stop-color: rgba(20, 20, 20, 1)"/>
    </linearGradient>
    <linearGradient id="gradient-1" gradientUnits="userSpaceOnUse" x1="93.832" y1="266.691" x2="93.832" y2="350.053" gradientTransform="matrix(0.999939, 0.01089, -0.010913, 0.972412, 2.916026, 6.335706)">
      <stop offset="0" style="stop-color: rgba(71, 71, 71, 1)"/>
      <stop offset="1" style="stop-color: rgba(20, 20, 20, 1)"/>
    </linearGradient>
  </defs>
  <path style="stroke-linecap: round; stroke-width: 6px; fill: rgb(255, 225, 0);" d="M 65.904 270.571 C 112.938 250.924 84.845 195.602 141.089 162.836 C 199.484 136.31 282.798 147.89 346.266 156.978 C 409.734 166.066 392.888 235.436 411.795 257.536 C 426.34 274.537 454.745 264.279 454.397 264.51 C 468.09 263.333 474.339 273.971 472.462 297.67 C 475.84 320.801 462.445 330.329 455.329 331.453 C 452.065 336.282 427.403 339.089 422.389 332.342 C 429.392 319.908 398.842 285.327 373.787 290.584 C 360.684 292.378 327.477 313.981 334.272 335.83 L 157.659 334.898 C 159.731 330.006 147.561 289.6 117.969 292.829 C 107.648 290.852 82.09 301.505 82.908 333.55 C 66.802 340.08 70.598 336.136 58.006 327.441 C 41.351 317.063 32.054 281.379 65.904 270.571 Z"/>
  <path style="stroke: rgb(200, 33, 33); stroke-linecap: round; stroke-width: 6px;" d="M 257.728 129.852"/>
  <path d="M 297.841 147.253 Q 307.39 130.713 316.939 147.253 L 327.589 165.699 Q 337.138 182.239 318.04 182.239 L 296.74 182.239 Q 277.642 182.239 287.191 165.699 Z" style="fill: rgb(65, 58, 58); stroke-linecap: round; stroke: rgb(86, 86, 86); stroke-linejoin: round; stroke-width: 9px;" transform="matrix(-0.510803, -0.859698, 0.859698, -0.510803, 300.289276, 492.604919)" bx:shape="triangle 277.642 130.713 59.496 51.526 0.5 0.321 1@154569d3"/>
  <path style="stroke-linecap: round; stroke-width: 6px; fill: rgb(212, 221, 223); stroke: rgb(194, 194, 194);" d="M 365.538 257.536 C 362.034 214.693 344.166 172.35 265.444 177.451 L 264.144 257.132 L 365.538 257.536 Z"/>
  <path style="stroke-linecap: round; stroke-width: 6px; fill: rgb(212, 221, 223); stroke: rgb(194, 194, 194);" d="M 236.001 177.032 C 232.497 219.875 214.629 262.218 135.907 257.117 L 134.607 177.436 L 236.001 177.032 Z" transform="matrix(-1, 0, 0, -1, 370.608002, 434.567947)"/>
  <circle style="stroke: rgb(0, 0, 0); stroke-linecap: round; stroke-width: 3.57151px; fill: url(#gradient-2);" cx="93.832" cy="308.372" r="41.681" transform="matrix(0.833692, 0, 0, 0.84627, 40.683815, 68.072609)"/>
  <circle style="stroke: rgb(0, 0, 0); stroke-linecap: round; stroke-width: 3.57151px; fill: url(#gradient-1);" cx="93.832" cy="308.372" r="41.681" transform="matrix(0.833692, 0, 0, 0.84627, 298.818726, 68.072609)"/>
  <rect x="170.077" y="276.547" width="18.132" height="17.218" style=""/>
  <rect x="188.209" y="293.765" width="18.132" height="17.218" style=""/>
  <rect x="206.341" y="276.547" width="18.132" height="17.218" style=""/>
  <rect x="217.869" y="293.765" width="18.132" height="17.218" style=""/>
  <rect x="236.001" y="276.547" width="18.132" height="17.218" style=""/>
  <rect x="246.012" y="293.765" width="18.132" height="17.218" style=""/>
  <rect x="264.144" y="276.547" width="18.132" height="17.218" style=""/>
  <rect x="282.276" y="293.765" width="18.132" height="17.218" style=""/>
  <rect x="293.756" y="276.547" width="18.132" height="17.218" style=""/>
  <rect x="311.888" y="293.765" width="18.132" height="17.218" style=""/>
  <path style="stroke-linecap: round; stroke-width: 6px; fill: rgb(250, 250, 202);" d="M 470.86 286.054 L 470.983 309.923 C 467.804 322.849 447.958 310.489 448.501 297.524 C 445.655 277.611 470.367 282.407 470.86 286.054 Z"/>
  <path style="stroke: rgb(200, 33, 33); stroke-linecap: round; stroke-width: 6px;" d="M 484.6 327.441"/>
  <path style="stroke: rgb(200, 33, 33); stroke-linecap: round; stroke-width: 6px;" d="M 351.586 516.198"/>
</svg>