<?xml version="1.0" encoding="utf-8"?>
<svg viewBox="-38.566 233.557 422.117 366.358" xmlns="http://www.w3.org/2000/svg">
  <path style="stroke-width: 3px; stroke: rgb(220, 220, 220); fill: rgb(252, 252, 252);" d="M 210.456 369.032 L 276.353 323.969 C 292.202 311.842 315.342 308.717 332.291 311.842 C 340.76 313.43 347.642 316.597 351.347 320.955 C 353.163 323.164 354.166 325.653 354.201 328.425 C 354.174 331.194 353.145 334.265 350.895 337.525 C 347.111 342.326 315.139 364.493 283.958 385.5 C 268.367 396.004 252.997 406.201 241.506 413.755 C 235.761 417.532 230.984 420.647 227.635 422.81 C 225.96 423.891 224.642 424.734 223.738 425.302 C 223.285 425.586 223.006 425.756 222.767 425.898 C 222.743 425.913 222.726 425.923 222.716 425.929 L 222.256 426.2 L 222.272 426.206 L 197.813 455.093 L 156.307 518.242 C 154.672 520.547 152.708 521.842 150.716 522.431 C 148.702 522.969 146.672 522.8 144.878 522.122 C 143.098 521.404 141.581 520.2 140.582 518.725 C 139.635 517.241 139.182 515.508 139.606 513.663 L 149.9 474.255 L 69.97 514.544 C 68.106 515.712 64.293 518.162 60.054 519.521 C 57.93 520.187 55.716 520.553 53.603 520.348 C 51.505 520.11 49.533 519.314 47.84 517.602 L 47.806 517.567 L -3.22 449.808 L -3.17 449.857 L -3.217 449.81 C -7.539 445.414 -9.267 441.268 -9.213 437.678 C -9.04 434.088 -7.121 431.079 -3.974 428.871 C 2.398 424.569 13.5 423.611 24.028 428.584 L 72.08 450.027 L 137.761 422.866 L 81.6 413.429 C 77.067 412.505 74.062 411.189 72.272 409.73 C 70.543 408.194 70.038 406.625 70.398 404.982 C 71.396 401.773 76.046 398.617 82.525 397.235 L 210.454 369.033 L 210.292 369.145 L 210.456 369.032 Z M 276.06 323.564 C 292.027 311.394 315.355 308.224 332.383 311.351 C 340.911 312.957 347.942 316.214 351.733 320.637 C 353.588 322.912 354.648 325.568 354.701 328.43 C 354.661 331.276 353.569 334.512 351.288 337.835 C 347.45 342.686 315.421 364.906 284.237 385.915 C 268.645 396.42 253.273 406.618 241.781 414.173 C 236.035 417.95 231.256 421.067 227.906 423.23 C 226.23 424.312 224.909 425.157 224.004 425.726 C 223.762 425.877 223.569 425.997 223.405 426.097 L 223.112 425.987 L 198.214 455.393 L 156.715 518.531 C 155.014 520.9 152.904 522.294 150.845 522.914 C 148.746 523.46 146.553 523.279 144.691 522.586 C 142.849 521.832 141.211 520.525 140.16 518.994 C 139.182 517.439 138.7 515.501 139.122 513.537 L 149.136 475.2 L 70.216 514.98 C 68.347 516.152 64.501 518.611 60.204 519.998 C 58.046 520.672 55.725 521.048 53.547 520.845 C 51.383 520.59 49.259 519.718 47.481 517.95 L 47.425 517.893 L -3.604 450.13 C -7.956 445.665 -9.747 441.335 -9.712 437.654 C -9.501 433.942 -7.468 430.735 -4.254 428.457 C 2.237 424.113 13.581 423.136 24.236 428.129 L 72.087 449.483 L 135.959 423.07 L 81.5 413.919 C 76.917 412.979 73.788 411.598 71.94 410.104 C 70.139 408.457 69.567 406.607 69.921 404.834 C 71.017 401.492 75.852 398.167 82.418 396.747 L 210.253 368.565 L 276.06 323.564 Z M 210.576 369.557 L 208.076 370.069 L 82.633 397.723 C 76.242 399.068 71.793 402.042 70.881 405.112 C 70.524 406.615 70.945 407.924 72.592 409.346 C 74.325 410.768 77.213 412.029 81.691 412.937 L 139.563 422.662 L 72.072 450.571 L 23.824 429.041 C 13.425 424.091 2.563 425.025 -3.691 429.283 C -6.768 431.421 -8.579 434.225 -8.713 437.692 C -8.784 441.181 -7.131 445.141 -2.863 449.457 L -2.816 449.503 L -2.82 449.507 L 48.187 517.241 L 48.199 517.254 C 49.807 518.91 51.624 519.629 53.655 519.851 C 55.702 520.057 57.814 519.702 59.903 519.044 C 64.083 517.713 67.838 515.29 69.705 514.12 L 149.675 473.809 L 150.664 473.31 L 140.09 513.789 C 139.67 515.509 140.084 517.037 141 518.45 C 141.947 519.867 143.342 520.974 145.06 521.656 C 146.785 522.317 148.654 522.478 150.58 521.95 C 152.503 521.391 154.326 520.197 155.893 517.961 L 197.412 454.793 L 221.432 426.425 L 221.1 426.301 L 222.461 425.499 C 222.472 425.492 222.484 425.486 222.502 425.474 C 222.739 425.333 223.022 425.161 223.472 424.879 C 224.374 424.312 225.69 423.47 227.364 422.39 C 230.712 420.227 235.487 417.114 241.231 413.337 C 252.721 405.784 268.089 395.588 283.679 385.085 C 314.857 364.08 346.718 342.003 350.493 337.228 C 352.705 334.035 353.686 331.116 353.701 328.425 C 353.683 325.746 352.739 323.419 350.963 321.276 C 347.344 316.985 340.61 313.903 332.2 312.334 C 315.33 309.211 292.387 312.288 276.657 324.366 L 210.739 369.444 L 210.576 369.557 Z M 276.06 323.564 C 292.027 311.394 315.355 308.224 332.383 311.351 C 340.911 312.957 347.942 316.214 351.733 320.637 C 353.588 322.912 354.648 325.568 354.701 328.43 C 354.661 331.276 353.569 334.512 351.288 337.835 C 347.45 342.686 315.421 364.906 284.237 385.915 C 268.645 396.42 253.273 406.618 241.781 414.173 C 236.035 417.95 231.256 421.067 227.906 423.23 C 226.23 424.312 224.909 425.157 224.004 425.726 C 223.762 425.877 223.569 425.997 223.405 426.097 L 223.112 425.987 L 198.214 455.393 L 156.715 518.531 C 155.014 520.9 152.904 522.294 150.845 522.914 C 148.746 523.46 146.553 523.279 144.691 522.586 C 142.849 521.832 141.211 520.525 140.16 518.994 C 139.182 517.439 138.7 515.501 139.122 513.537 L 149.136 475.2 L 70.216 514.98 C 68.347 516.152 64.501 518.611 60.204 519.998 C 58.046 520.672 55.725 521.048 53.547 520.845 C 51.383 520.59 49.259 519.718 47.481 517.95 L 47.425 517.893 L -3.604 450.13 C -7.956 445.665 -9.747 441.335 -9.712 437.654 C -9.501 433.942 -7.468 430.735 -4.254 428.457 C 2.237 424.113 13.581 423.136 24.236 428.129 L 72.087 449.483 L 135.959 423.07 L 81.5 413.919 C 76.917 412.979 73.788 411.598 71.94 410.104 C 70.139 408.457 69.567 406.607 69.921 404.834 C 71.017 401.492 75.852 398.167 82.418 396.747 L 210.253 368.565 L 276.06 323.564 Z M 210.576 369.557 L 208.076 370.069 L 82.633 397.723 C 76.242 399.068 71.793 402.042 70.881 405.112 C 70.524 406.615 70.945 407.924 72.592 409.346 C 74.325 410.768 77.213 412.029 81.691 412.937 L 139.563 422.662 L 72.072 450.571 L 23.824 429.041 C 13.425 424.091 2.563 425.025 -3.691 429.283 C -6.768 431.421 -8.579 434.225 -8.713 437.692 C -8.784 441.181 -7.131 445.141 -2.863 449.457 L -2.816 449.503 L -2.82 449.507 L 48.187 517.241 L 48.199 517.254 C 49.807 518.91 51.624 519.629 53.655 519.851 C 55.702 520.057 57.814 519.702 59.903 519.044 C 64.083 517.713 67.838 515.29 69.705 514.12 L 149.675 473.809 L 150.664 473.31 L 140.09 513.789 C 139.67 515.509 140.084 517.037 141 518.45 C 141.947 519.867 143.342 520.974 145.06 521.656 C 146.785 522.317 148.654 522.478 150.58 521.95 C 152.503 521.391 154.326 520.197 155.893 517.961 L 197.412 454.793 L 221.432 426.425 L 221.1 426.301 L 222.461 425.499 C 222.472 425.492 222.484 425.486 222.502 425.474 C 222.739 425.333 223.022 425.161 223.472 424.879 C 224.374 424.312 225.69 423.47 227.364 422.39 C 230.712 420.227 235.487 417.114 241.231 413.337 C 252.721 405.784 268.089 395.588 283.679 385.085 C 314.857 364.08 346.718 342.003 350.493 337.228 C 352.705 334.035 353.686 331.116 353.701 328.425 C 353.683 325.746 352.739 323.419 350.963 321.276 C 347.344 316.985 340.61 313.903 332.2 312.334 C 315.33 309.211 292.387 312.288 276.657 324.366 L 210.739 369.444 L 210.576 369.557 Z M 276.06 323.564 C 292.027 311.394 315.355 308.224 332.383 311.351 C 340.911 312.957 347.942 316.214 351.733 320.637 C 353.588 322.912 354.648 325.568 354.701 328.43 C 354.661 331.276 353.569 334.512 351.288 337.835 C 347.45 342.686 315.421 364.906 284.237 385.915 C 268.645 396.42 253.273 406.618 241.781 414.173 C 236.035 417.95 231.256 421.067 227.906 423.23 C 226.23 424.312 224.909 425.157 224.004 425.726 C 223.762 425.877 223.569 425.997 223.405 426.097 L 223.112 425.987 L 198.214 455.393 L 156.715 518.531 C 155.014 520.9 152.904 522.294 150.845 522.914 C 148.746 523.46 146.553 523.279 144.691 522.586 C 142.849 521.832 141.211 520.525 140.16 518.994 C 139.182 517.439 138.7 515.501 139.122 513.537 L 149.136 475.2 L 70.216 514.98 C 68.347 516.152 64.501 518.611 60.204 519.998 C 58.046 520.672 55.725 521.048 53.547 520.845 C 51.383 520.59 49.259 519.718 47.481 517.95 L 47.425 517.893 L -3.604 450.13 C -7.956 445.665 -9.747 441.335 -9.712 437.654 C -9.501 433.942 -7.468 430.735 -4.254 428.457 C 2.237 424.113 13.581 423.136 24.236 428.129 L 72.087 449.483 L 135.959 423.07 L 81.5 413.919 C 76.917 412.979 73.788 411.598 71.94 410.104 C 70.139 408.457 69.567 406.607 69.921 404.834 C 71.017 401.492 75.852 398.167 82.418 396.747 L 210.253 368.565 L 276.06 323.564 Z M 210.576 369.557 L 208.076 370.069 L 82.633 397.723 C 76.242 399.068 71.793 402.042 70.881 405.112 C 70.524 406.615 70.945 407.924 72.592 409.346 C 74.325 410.768 77.213 412.029 81.691 412.937 L 139.563 422.662 L 72.072 450.571 L 23.824 429.041 C 13.425 424.091 2.563 425.025 -3.691 429.283 C -6.768 431.421 -8.579 434.225 -8.713 437.692 C -8.784 441.181 -7.131 445.141 -2.863 449.457 L -2.816 449.503 L -2.82 449.507 L 48.187 517.241 L 48.199 517.254 C 49.807 518.91 51.624 519.629 53.655 519.851 C 55.702 520.057 57.814 519.702 59.903 519.044 C 64.083 517.713 67.838 515.29 69.705 514.12 L 149.675 473.809 L 150.664 473.31 L 140.09 513.789 C 139.67 515.509 140.084 517.037 141 518.45 C 141.947 519.867 143.342 520.974 145.06 521.656 C 146.785 522.317 148.654 522.478 150.58 521.95 C 152.503 521.391 154.326 520.197 155.893 517.961 L 197.412 454.793 L 221.432 426.425 L 221.1 426.301 L 222.461 425.499 C 222.472 425.492 222.484 425.486 222.502 425.474 C 222.739 425.333 223.022 425.161 223.472 424.879 C 224.374 424.312 225.69 423.47 227.364 422.39 C 230.712 420.227 235.487 417.114 241.231 413.337 C 252.721 405.784 268.089 395.588 283.679 385.085 C 314.857 364.08 346.718 342.003 350.493 337.228 C 352.705 334.035 353.686 331.116 353.701 328.425 C 353.683 325.746 352.739 323.419 350.963 321.276 C 347.344 316.985 340.61 313.903 332.2 312.334 C 315.33 309.211 292.387 312.288 276.657 324.366 L 210.739 369.444 L 210.576 369.557 Z M 276.06 323.564 C 292.027 311.394 315.355 308.224 332.383 311.351 C 340.911 312.957 347.942 316.214 351.733 320.637 C 353.588 322.912 354.648 325.568 354.701 328.43 C 354.661 331.276 353.569 334.512 351.288 337.835 C 347.45 342.686 315.421 364.906 284.237 385.915 C 268.645 396.42 253.273 406.618 241.781 414.173 C 236.035 417.95 231.256 421.067 227.906 423.23 C 226.23 424.312 224.909 425.157 224.004 425.726 C 223.762 425.877 223.569 425.997 223.405 426.097 L 223.112 425.987 L 198.214 455.393 L 156.715 518.531 C 155.014 520.9 152.904 522.294 150.845 522.914 C 148.746 523.46 146.553 523.279 144.691 522.586 C 142.849 521.832 141.211 520.525 140.16 518.994 C 139.182 517.439 138.7 515.501 139.122 513.537 L 149.136 475.2 L 70.216 514.98 C 68.347 516.152 64.501 518.611 60.204 519.998 C 58.046 520.672 55.725 521.048 53.547 520.845 C 51.383 520.59 49.259 519.718 47.481 517.95 L 47.425 517.893 L -3.604 450.13 C -7.956 445.665 -9.747 441.335 -9.712 437.654 C -9.501 433.942 -7.468 430.735 -4.254 428.457 C 2.237 424.113 13.581 423.136 24.236 428.129 L 72.087 449.483 L 135.959 423.07 L 81.5 413.919 C 76.917 412.979 73.788 411.598 71.94 410.104 C 70.139 408.457 69.567 406.607 69.921 404.834 C 71.017 401.492 75.852 398.167 82.418 396.747 L 210.253 368.565 L 276.06 323.564 Z M 210.576 369.557 L 208.076 370.069 L 82.633 397.723 C 76.242 399.068 71.793 402.042 70.881 405.112 C 70.524 406.615 70.945 407.924 72.592 409.346 C 74.325 410.768 77.213 412.029 81.691 412.937 L 139.563 422.662 L 72.072 450.571 L 23.824 429.041 C 13.425 424.091 2.563 425.025 -3.691 429.283 C -6.768 431.421 -8.579 434.225 -8.713 437.692 C -8.784 441.181 -7.131 445.141 -2.863 449.457 L -2.816 449.503 L -2.82 449.507 L 48.187 517.241 L 48.199 517.254 C 49.807 518.91 51.624 519.629 53.655 519.851 C 55.702 520.057 57.814 519.702 59.903 519.044 C 64.083 517.713 67.838 515.29 69.705 514.12 L 149.675 473.809 L 150.664 473.31 L 140.09 513.789 C 139.67 515.509 140.084 517.037 141 518.45 C 141.947 519.867 143.342 520.974 145.06 521.656 C 146.785 522.317 148.654 522.478 150.58 521.95 C 152.503 521.391 154.326 520.197 155.893 517.961 L 197.412 454.793 L 221.432 426.425 L 221.1 426.301 L 222.461 425.499 C 222.472 425.492 222.484 425.486 222.502 425.474 C 222.739 425.333 223.022 425.161 223.472 424.879 C 224.374 424.312 225.69 423.47 227.364 422.39 C 230.712 420.227 235.487 417.114 241.231 413.337 C 252.721 405.784 268.089 395.588 283.679 385.085 C 314.857 364.08 346.718 342.003 350.493 337.228 C 352.705 334.035 353.686 331.116 353.701 328.425 C 353.683 325.746 352.739 323.419 350.963 321.276 C 347.344 316.985 340.61 313.903 332.2 312.334 C 315.33 309.211 292.387 312.288 276.657 324.366 L 210.739 369.444 L 210.576 369.557 Z M 210.254 368.565 L 276.039 323.58 C 292.003 311.397 315.36 308.187 332.382 311.35 C 340.913 312.935 347.994 316.162 351.731 320.634 C 353.614 322.887 354.703 325.559 354.701 328.426 C 354.699 331.277 353.599 334.482 351.306 337.81 C 347.546 342.62 315.421 364.906 284.237 385.915 C 268.644 396.42 253.273 406.619 241.781 414.173 C 236.035 417.95 231.257 421.067 227.906 423.23 C 226.231 424.312 224.91 425.156 224.004 425.725 C 223.55 426.01 223.196 426.229 222.955 426.373 C 222.832 426.446 222.731 426.504 222.662 426.541 C 222.624 426.561 222.581 426.583 222.551 426.596 C 222.53 426.605 222.488 426.621 222.46 426.628 C 222.399 426.644 222.162 426.58 221.985 426.513 L 222.501 426.708 L 198.214 455.393 L 156.725 518.518 C 155.031 520.892 152.932 522.321 150.853 522.912 C 148.762 523.506 146.549 523.31 144.697 522.587 C 142.84 521.864 141.184 520.554 140.164 518.999 C 139.14 517.439 138.696 515.459 139.122 513.537 L 149.136 475.2 L 70.255 514.955 C 68.401 516.117 64.513 518.636 60.205 519.997 C 58.05 520.678 55.729 521.076 53.551 520.846 C 51.37 520.616 49.216 519.705 47.44 517.906 L 47.42 517.885 L -3.601 450.132 C -7.954 445.673 -9.815 441.361 -9.713 437.665 C -9.61 433.943 -7.505 430.691 -4.258 428.459 C 2.182 424.032 13.573 423.124 24.226 428.125 L 72.087 449.483 L 135.959 423.07 L 81.516 413.923 C 76.926 412.983 73.786 411.636 71.953 410.115 C 70.071 408.553 69.441 406.604 69.915 404.852 C 70.835 401.449 75.851 398.163 82.417 396.747 L 210.254 368.565 Z M 210.658 369.499 L 82.632 397.723 C 76.235 399.068 71.714 402.031 70.88 405.113 C 70.477 406.602 70.916 407.954 72.592 409.345 C 74.316 410.776 77.22 412.032 81.707 412.941 L 139.563 422.662 L 72.072 450.571 L 23.814 429.037 C 13.414 424.079 2.543 424.997 -3.691 429.283 C -6.781 431.407 -8.618 434.231 -8.713 437.693 C -8.809 441.179 -7.131 445.141 -2.865 449.455 L -2.842 449.478 L 48.181 517.234 C 49.783 518.902 51.616 519.636 53.656 519.851 C 55.699 520.067 57.814 519.704 59.903 519.044 C 64.085 517.723 67.891 515.256 69.744 514.095 L 149.675 473.809 L 150.664 473.31 L 140.09 513.789 C 139.664 515.48 140.068 517.032 141 518.45 C 141.934 519.873 143.34 520.986 145.06 521.656 C 146.783 522.327 148.66 522.495 150.579 521.95 C 152.51 521.402 154.339 520.192 155.902 517.95 L 197.412 454.793 L 222.142 425.585 L 222.252 425.625 C 222.302 425.597 222.364 425.56 222.443 425.514 C 222.677 425.374 223.021 425.161 223.472 424.878 C 224.375 424.311 225.69 423.47 227.364 422.39 C 230.713 420.228 235.487 417.113 241.232 413.337 C 252.722 405.784 268.089 395.589 283.678 385.086 C 314.857 364.08 346.818 341.935 350.509 337.206 C 352.733 334.008 353.699 331.117 353.701 328.425 C 353.703 325.747 352.749 323.411 350.964 321.275 C 347.365 316.969 340.613 313.896 332.2 312.333 C 315.332 309.198 292.364 312.291 276.636 324.382 L 210.738 369.445 L 210.658 369.499 Z M 210.174 368.619 L 276.039 323.58 C 292.003 311.397 315.36 308.187 332.382 311.35 C 340.913 312.935 347.994 316.162 351.731 320.634 C 353.614 322.887 354.703 325.559 354.701 328.426 C 354.699 331.277 353.599 334.482 351.306 337.81 C 347.546 342.62 315.421 364.906 284.237 385.915 C 268.644 396.42 253.273 406.619 241.781 414.173 C 236.035 417.95 231.257 421.067 227.906 423.23 C 226.231 424.312 224.91 425.156 224.004 425.725 C 223.55 426.01 223.196 426.229 222.955 426.373 C 222.832 426.446 222.731 426.504 222.662 426.541 C 222.624 426.561 222.581 426.583 222.551 426.596 C 222.53 426.605 222.488 426.621 222.46 426.628 C 222.399 426.644 222.162 426.58 221.985 426.513 L 222.501 426.708 L 222.705 426.468 L 198.214 455.393 L 156.725 518.518 C 155.031 520.892 152.932 522.321 150.853 522.912 C 148.762 523.506 146.549 523.31 144.697 522.587 C 142.84 521.864 141.184 520.554 140.164 518.999 C 139.14 517.439 138.696 515.459 139.122 513.537 L 149.136 475.2 L 70.255 514.955 C 68.401 516.117 64.513 518.636 60.205 519.997 C 58.05 520.678 55.729 521.076 53.551 520.846 C 51.37 520.616 49.216 519.705 47.44 517.906 L 47.42 517.885 L 47.4 517.859 L -3.601 450.132 C -7.954 445.673 -9.815 441.361 -9.713 437.665 C -9.61 433.943 -7.505 430.691 -4.258 428.459 C 2.182 424.032 13.573 423.124 24.226 428.125 L 72.087 449.483 L 135.959 423.07 L 81.516 413.923 C 76.926 412.983 73.786 411.636 71.953 410.115 C 70.071 408.553 69.441 406.604 69.915 404.852 C 70.382 403.123 71.92 401.386 74.088 399.99 C 75.166 399.296 76.441 398.653 77.835 398.106 C 78.531 397.834 79.273 397.579 80.035 397.352 C 80.416 397.239 80.81 397.13 81.206 397.029 C 81.602 396.929 82.401 396.75 82.401 396.75 C 82.405 396.749 82.647 397.72 82.647 397.72 C 82.647 397.72 81.839 397.9 81.452 397.998 C 81.066 398.097 80.692 398.2 80.32 398.31 C 79.578 398.531 78.877 398.772 78.2 399.038 C 76.85 399.567 75.663 400.166 74.629 400.831 C 72.574 402.153 71.289 403.599 70.88 405.113 C 70.477 406.602 70.915 407.954 72.592 409.345 C 74.316 410.776 77.22 412.032 81.707 412.941 L 139.563 422.662 L 72.072 450.571 L 23.814 429.037 C 13.414 424.079 2.543 424.997 -3.691 429.283 C -6.781 431.407 -8.618 434.231 -8.713 437.692 C -8.809 441.179 -7.131 445.141 -2.865 449.455 L -2.842 449.478 L 48.181 517.234 C 49.783 518.902 51.615 519.636 53.656 519.851 C 55.699 520.067 57.814 519.704 59.903 519.044 C 64.085 517.722 67.891 515.256 69.744 514.095 L 149.675 473.808 L 150.664 473.31 L 140.09 513.789 C 139.664 515.48 140.068 517.032 141 518.45 C 141.934 519.873 143.34 520.986 145.06 521.656 C 146.783 522.327 148.66 522.495 150.579 521.95 C 152.51 521.402 154.339 520.192 155.902 517.95 L 197.412 454.793 L 222.142 425.585 L 222.252 425.625 C 222.302 425.597 222.364 425.56 222.443 425.514 C 222.677 425.374 223.021 425.161 223.472 424.878 C 224.375 424.311 225.69 423.47 227.364 422.39 C 230.712 420.228 235.487 417.113 241.232 413.337 C 252.722 405.784 268.089 395.588 283.678 385.086 C 314.857 364.08 346.818 341.935 350.509 337.206 C 352.733 334.008 353.699 331.117 353.701 328.425 C 353.703 325.747 352.749 323.411 350.964 321.275 C 347.365 316.969 340.613 313.896 332.2 312.333 C 315.332 309.198 292.364 312.291 276.636 324.382 L 210.738 369.445 L 210.174 368.619 Z M 210.174 368.619 L 276.039 323.58 C 292.003 311.397 315.36 308.187 332.382 311.35 C 340.913 312.935 347.994 316.162 351.731 320.634 C 353.614 322.887 354.703 325.559 354.701 328.426 C 354.699 331.277 353.599 334.482 351.306 337.81 C 347.546 342.62 315.421 364.906 284.237 385.915 C 268.644 396.42 253.273 406.619 241.781 414.173 C 236.035 417.95 231.257 421.067 227.906 423.23 C 226.231 424.312 224.91 425.156 224.004 425.725 C 223.55 426.01 223.196 426.229 222.955 426.373 C 222.832 426.446 222.731 426.504 222.662 426.541 C 222.624 426.561 222.581 426.583 222.551 426.596 C 222.53 426.605 222.488 426.621 222.46 426.628 C 222.399 426.644 222.162 426.58 221.985 426.513 L 222.501 426.708 L 222.705 426.468 L 198.214 455.393 L 156.725 518.518 C 155.031 520.892 152.932 522.321 150.853 522.912 C 148.762 523.506 146.549 523.31 144.697 522.587 C 142.84 521.864 141.184 520.554 140.164 518.999 C 139.14 517.439 138.696 515.459 139.122 513.537 L 149.136 475.2 L 70.255 514.955 C 68.401 516.117 64.513 518.636 60.205 519.997 C 58.05 520.678 55.729 521.076 53.551 520.846 C 51.37 520.616 49.216 519.705 47.44 517.906 L 47.42 517.885 L 47.4 517.859 L -3.601 450.132 C -7.954 445.673 -9.815 441.361 -9.713 437.665 C -9.61 433.943 -7.505 430.691 -4.258 428.459 C 2.182 424.032 13.573 423.124 24.226 428.125 L 72.087 449.483 L 135.959 423.07 L 81.516 413.923 C 76.926 412.983 73.786 411.636 71.953 410.115 C 70.071 408.553 69.441 406.604 69.915 404.852 C 70.382 403.123 71.92 401.386 74.088 399.99 C 75.166 399.296 76.441 398.653 77.835 398.106 C 78.531 397.834 79.273 397.579 80.035 397.352 C 80.416 397.239 80.81 397.13 81.206 397.029 C 81.602 396.929 82.401 396.75 82.401 396.75 C 82.405 396.749 82.647 397.72 82.647 397.72 C 82.647 397.72 81.839 397.9 81.452 397.998 C 81.066 398.097 80.692 398.2 80.32 398.31 C 79.578 398.531 78.877 398.772 78.2 399.038 C 76.85 399.567 75.663 400.166 74.629 400.831 C 72.574 402.153 71.289 403.599 70.88 405.113 C 70.477 406.602 70.915 407.954 72.592 409.345 C 74.316 410.776 77.22 412.032 81.707 412.941 L 139.563 422.662 L 72.072 450.571 L 23.814 429.037 C 13.414 424.079 2.543 424.997 -3.691 429.283 C -6.781 431.407 -8.618 434.231 -8.713 437.692 C -8.809 441.179 -7.131 445.141 -2.865 449.455 L -2.842 449.478 L 48.181 517.234 C 49.783 518.902 51.615 519.636 53.656 519.851 C 55.699 520.067 57.814 519.704 59.903 519.044 C 64.085 517.722 67.891 515.256 69.744 514.095 L 149.675 473.808 L 150.664 473.31 L 140.09 513.789 C 139.664 515.48 140.068 517.032 141 518.45 C 141.934 519.873 143.34 520.986 145.06 521.656 C 146.783 522.327 148.66 522.495 150.579 521.95 C 152.51 521.402 154.339 520.192 155.902 517.95 L 197.412 454.793 L 222.142 425.585 L 222.252 425.625 C 222.302 425.597 222.364 425.56 222.443 425.514 C 222.677 425.374 223.021 425.161 223.472 424.878 C 224.375 424.311 225.69 423.47 227.364 422.39 C 230.712 420.228 235.487 417.113 241.232 413.337 C 252.722 405.784 268.089 395.588 283.678 385.086 C 314.857 364.08 346.818 341.935 350.509 337.206 C 352.733 334.008 353.699 331.117 353.701 328.425 C 353.703 325.747 352.749 323.411 350.964 321.275 C 347.365 316.969 340.613 313.896 332.2 312.333 C 315.332 309.198 292.364 312.291 276.636 324.382 L 210.738 369.445 L 210.174 368.619 Z M 210.174 368.619 L 276.039 323.58 C 292.003 311.397 315.36 308.187 332.382 311.35 C 340.913 312.935 347.994 316.162 351.731 320.634 C 353.614 322.887 354.703 325.559 354.701 328.426 C 354.699 331.277 353.599 334.482 351.306 337.81 C 347.546 342.62 315.421 364.906 284.237 385.915 C 268.644 396.42 253.273 406.619 241.781 414.173 C 236.035 417.95 231.257 421.067 227.906 423.23 C 226.231 424.312 224.91 425.156 224.004 425.725 C 223.55 426.01 223.196 426.229 222.955 426.373 C 222.832 426.446 222.731 426.504 222.662 426.541 C 222.624 426.561 222.581 426.583 222.551 426.596 C 222.53 426.605 222.488 426.621 222.46 426.628 C 222.399 426.644 222.162 426.58 221.985 426.513 L 222.501 426.708 L 222.705 426.468 L 198.214 455.393 L 156.725 518.518 C 155.031 520.892 152.932 522.321 150.853 522.912 C 148.762 523.506 146.549 523.31 144.697 522.587 C 142.84 521.864 141.184 520.554 140.164 518.999 C 139.14 517.439 138.696 515.459 139.122 513.537 L 149.136 475.2 L 70.255 514.955 C 68.401 516.117 64.513 518.636 60.205 519.997 C 58.05 520.678 55.729 521.076 53.551 520.846 C 51.37 520.616 49.216 519.705 47.44 517.906 L 47.42 517.885 L 47.4 517.859 L -3.601 450.132 C -7.954 445.673 -9.815 441.361 -9.713 437.665 C -9.61 433.943 -7.505 430.691 -4.258 428.459 C 2.182 424.032 13.573 423.124 24.226 428.125 L 72.087 449.483 L 135.959 423.07 L 81.516 413.923 C 76.926 412.983 73.786 411.636 71.953 410.115 C 70.071 408.553 69.441 406.604 69.915 404.852 C 70.382 403.123 71.92 401.386 74.088 399.99 C 75.166 399.296 76.441 398.653 77.835 398.106 C 78.531 397.834 79.273 397.579 80.035 397.352 C 80.416 397.239 80.81 397.13 81.206 397.029 C 81.602 396.929 82.401 396.75 82.401 396.75 C 82.405 396.749 82.647 397.72 82.647 397.72 C 82.647 397.72 81.839 397.9 81.452 397.998 C 81.066 398.097 80.692 398.2 80.32 398.31 C 79.578 398.531 78.877 398.772 78.2 399.038 C 76.85 399.567 75.663 400.166 74.629 400.831 C 72.574 402.153 71.289 403.599 70.88 405.113 C 70.477 406.602 70.915 407.954 72.592 409.345 C 74.316 410.776 77.22 412.032 81.707 412.941 L 139.563 422.662 L 72.072 450.571 L 23.814 429.037 C 13.414 424.079 2.543 424.997 -3.691 429.283 C -6.781 431.407 -8.618 434.231 -8.713 437.692 C -8.809 441.179 -7.131 445.141 -2.865 449.455 L -2.842 449.478 L 48.181 517.234 C 49.783 518.902 51.615 519.636 53.656 519.851 C 55.699 520.067 57.814 519.704 59.903 519.044 C 64.085 517.722 67.891 515.256 69.744 514.095 L 149.675 473.808 L 150.664 473.31 L 140.09 513.789 C 139.664 515.48 140.068 517.032 141 518.45 C 141.934 519.873 143.34 520.986 145.06 521.656 C 146.783 522.327 148.66 522.495 150.579 521.95 C 152.51 521.402 154.339 520.192 155.902 517.95 L 197.412 454.793 L 222.142 425.585 L 222.252 425.625 C 222.302 425.597 222.364 425.56 222.443 425.514 C 222.677 425.374 223.021 425.161 223.472 424.878 C 224.375 424.311 225.69 423.47 227.364 422.39 C 230.712 420.228 235.487 417.113 241.232 413.337 C 252.722 405.784 268.089 395.588 283.678 385.086 C 314.857 364.08 346.818 341.935 350.509 337.206 C 352.733 334.008 353.699 331.117 353.701 328.425 C 353.703 325.747 352.749 323.411 350.964 321.275 C 347.365 316.969 340.613 313.896 332.2 312.333 C 315.332 309.198 292.364 312.291 276.636 324.382 L 210.738 369.445 L 210.174 368.619 Z" transform="matrix(0.866883, 0.498511, -0.498511, 0.866883, 230.709149, -30.514661)"/>
</svg>