<?xml version="1.0" encoding="utf-8"?>
<svg viewBox="0 0 500 500" xmlns="http://www.w3.org/2000/svg">
  <g>
    <title>backSkyline</title>
    <path d="M 0 146.61 L 38.929 146.61 L 38.929 76.456 L 101.439 76.456 L 101.439 129.747 L 137.678 129.747 L 137.678 56.208 L 143.94 56.208 L 166.233 16.49 L 189.547 56.208 L 198.394 56.208 L 198.394 96.881 L 223.976 96.881 L 223.976 56.208 L 248.319 56.208 L 248.319 146.61 L 258.687 146.61 L 258.687 129.747 L 268.618 129.747 L 268.618 96.881 L 277.154 96.881 L 277.154 76.456 L 305.913 76.456 L 305.913 146.61 L 319.04 146.61 L 319.04 108.648 L 325.067 108.648 L 325.067 72.656 L 327.924 72.656 L 327.924 41.051 L 331.279 41.051 L 331.279 22.251 L 333.375 22.251 L 333.375 41.051 L 336.353 41.051 L 336.353 72.656 L 339.679 72.656 L 339.679 108.648 L 347.218 108.648 L 347.218 201.175 L 359.932 201.175 L 359.932 96.881 L 389.939 96.881 L 389.939 44.816 L 420.09 44.816 L 420.09 96.881 L 429.54 96.881 L 429.54 211.124 L 438.657 211.124 L 438.657 129.747 L 477.427 129.747 L 477.427 232.286 L 500 232.286 L 500 500 L 0 500 Z" style="fill: rgb(142, 142, 142);"/>
  </g>
  <g>
    <title>middleSkyline</title>
    <path d="M 0 244.162 L 36.551 244.162 L 36.551 185.454 L 91.292 185.454 L 91.292 211.124 L 140.222 211.124 L 140.222 162.786 L 223.738 162.786 L 223.738 230.299 L 247.587 230.299 L 247.587 108.648 L 300.172 108.648 L 300.172 197.802 L 318.97 197.802 L 318.97 150.66 L 344.844 150.66 L 344.844 197.802 L 359.12 197.802 L 359.12 185.454 L 383.139 185.454 L 383.139 150.66 L 432.034 150.66 L 432.034 185.454 L 447.154 185.454 L 447.154 211.124 L 475.258 211.124 L 475.258 280.41 L 485.241 280.41 L 485.241 150.66 L 500 150.66 L 500 500 L 0 500 Z" style="fill: rgb(94, 93, 93);"/>
  </g>
  <g>
    <title>frontSkyline</title>
    <path d="M 500 388.838 L 500 500 L 215.352 500 L 0 500 L 0 325.404 L 63.228 325.404 L 63.228 249.604 L 127.605 249.604 L 127.605 211.124 L 164.807 211.124 L 164.807 249.604 L 172.35 249.604 L 172.35 352.73 L 198.207 352.73 L 198.207 397.038 L 215.352 397.038 L 215.352 372.352 L 227.185 372.352 L 227.185 311.914 L 236.017 311.914 L 236.017 285.898 L 280.154 285.898 L 280.154 311.914 L 290.881 311.914 L 290.881 372.352 L 313.639 372.352 L 313.639 429.93 L 355.246 429.93 L 355.246 211.124 L 413.926 211.124 L 413.926 298.04 L 449.636 298.04 L 449.636 388.608 L 500 388.838 Z" style="fill: rgb(52, 52, 52);"/>
  </g>
</svg>